PathFileType	3	(X/Y/Z)	D:\Jess\Healthy\Labelled\HA21\20251027\SRRun01.trc
DataRate	CameraRate	NumFrames	NumMarkers	Units	OrigDataRate	OrigDataStartFrame	OrigNumFrames
250.0	250.0	4	33	mm	250.0	39000	4001
Frame#	Time	C7			T10			CLAV			LSHO			RSHO			LASIS			RASIS			LPSIS			RPSIS			LILCR			RILCR			LGTR			LTHI			LLTHI			LLEP			LPSH			LLSH			LDSH			LLMAL			LTOE			L5TH			LHEE			RGTR			RTHI			RLTHI			RLEP			RPSH			RLSH			RDSH			RLMAL			RTOE			R5TH			RHEE			
		X1	Y1	Z1	X2	Y2	Z2	X3	Y3	Z3	X4	Y4	Z4	X5	Y5	Z5	X6	Y6	Z6	X7	Y7	Z7	X8	Y8	Z8	X9	Y9	Z9	X10	Y10	Z10	X11	Y11	Z11	X12	Y12	Z12	X13	Y13	Z13	X14	Y14	Z14	X15	Y15	Z15	X16	Y16	Z16	X17	Y17	Z17	X18	Y18	Z18	X19	Y19	Z19	X20	Y20	Z20	X21	Y21	Z21	X22	Y22	Z22	X23	Y23	Z23	X24	Y24	Z24	X25	Y25	Z25	X26	Y26	Z26	X27	Y27	Z27	X28	Y28	Z28	X29	Y29	Z29	X30	Y30	Z30	X31	Y31	Z31	X32	Y32	Z32	X33	Y33	Z33	

3001	155.996	766.7607176935675	1473.520228010218	-963.1119353612925	775.431643352842	1251.389367939787	-917.6495461384126	799.7995390494788	1408.248520727573	-1117.497073903601	623.6173432484147	1463.752234298222	-1066.877984130484	931.5931371163319	1462.124184009599	-1034.968669366348	669.846318730096	968.4458242812082	-1069.684166613752	903.7749745003406	961.6728616921224	-1079.298350177377	776.474065231313	1023.44446608349	-891.3761143222691	808.7072133916251	1022.70649113492	-892.387020408031	617.6324777024967	1039.775993107855	-1025.411227746912	952.1104710437039	1052.821338990085	-991.1730605201864	601.7496327842147	849.0075086512962	-988.9540595379561	677.8203389018463	693.2204526729619	-1119.940781032439	636.6819551017722	612.0868281555912	-1010.566364622865	667.4056326191767	468.4900161779634	-1015.261719191571	724.68156578455	374.2313970138838	-1040.595495454485	672.4308517773866	305.9368639542508	-928.8303678729835	739.8143845958185	221.7970210474593	-939.8569666362798	712.2679125087243	128.4324244148584	-822.8515494483973	726.5609944021845	58.0241962395361	-961.9771525013372	680.5425985521098	41.55368459018828	-902.0131320569594	769.5505864053969	100.9546814926258	-734.3912993222322	979.699926558368	837.785570363809	-1020.656508013019	893.3796680185745	730.017902810481	-1174.342565864009	952.9999157020724	601.8934870100635	-1099.050640545088	933.571034233893	518.5521716261921	-1120.9615558833	877.3832851654367	422.3511862761357	-1083.424233905039	937.5983625394991	458.4983325554443	-972.5329707005708	878.844772441253	387.1883395237368	-913.6372150505464	905.3186453387323	398.6525647756073	-775.8609686073452	899.616269168623	237.5218733654465	-767.0592641281883	938.4425445200817	276.3991588486542	-728.5821463686802	848.4186262671659	460.6534047000597	-726.6900071289608	
3002	156	766.4816190314987	1475.924485249965	-963.330227592478	774.6533086729434	1253.826449875858	-917.8867158291557	801.1035506896714	1410.713716261278	-1117.282316951639	624.4126438712709	1466.304951431397	-1068.369541615674	931.8997823156568	1464.571510386875	-1033.453056519975	670.0821535865239	970.3572045771728	-1070.105539610474	904.3339318474461	965.1178472564654	-1078.665108354734	775.6248127945288	1025.925815182152	-891.468749400723	807.8421694588433	1025.288399263517	-892.3185336289428	617.8227229487429	1042.8276325791	-1026.207810633676	951.9155860283106	1055.560618981136	-989.75008819698	601.7257648077926	850.817142911749	-988.3821772800627	677.9426054917162	692.5765429217068	-1115.588597271627	636.6424387818017	613.6941699124731	-1004.617558592686	667.0214503885976	469.6568588574056	-1006.427243121993	724.0775447873492	374.9091278815536	-1030.870006061617	671.9042735799	307.6262341761914	-918.7298835884651	739.1264406425096	223.3024304003017	-929.2807969382782	711.3893105533348	130.3789282130623	-811.7434878961485	726.2847677344313	57.85213416708837	-949.8112011556138	680.3429109547881	41.56361704248275	-889.7930929670478	768.7595944391087	104.1212119619429	-723.2007932737713	979.9888851593	841.3920474495729	-1020.325309683544	893.1418904188832	736.4337456890102	-1176.094902862854	952.8839623008229	606.7092657075345	-1103.54261250706	933.3136160966542	523.1865831641982	-1126.736711681589	877.2705694029803	425.7625399595606	-1091.588597323534	937.6200532999147	458.5089335164805	-979.7755749397643	878.8857836997406	385.4850695827173	-922.916430244918	905.5390348429252	392.5949267660397	-784.8309810837162	899.4568801731587	231.2731395069801	-781.3940700187935	938.3837010784736	268.6885610154138	-741.6023396309902	848.9253781233184	453.0728912025942	-733.4546378747289	
3003	156.004	766.25518013058	1478.520137152017	-963.5486705807216	773.8966280388094	1256.427935616431	-918.1841384901829	802.4249305741182	1413.403158364153	-1117.068107177242	625.2515156927786	1469.094688914595	-1069.82023935236	932.2273760458943	1467.214366863795	-1031.958815845313	670.302109656167	972.4468479843127	-1070.60929142696	904.8822124491368	968.8236161155338	-1078.154181627204	774.7690905387207	1028.562244594259	-891.6605341469926	806.9744940139345	1028.036634829168	-892.3502402991649	618.0083700165524	1046.11192785577	-1027.106360625203	951.6965756381986	1058.515221601242	-988.479053368388	601.7317453270557	852.7694686606017	-987.8412300172467	678.0152467755901	692.1177449621845	-1111.219299580407	636.6437266177467	615.5417446967886	-998.6382406443307	666.645917193143	471.1587158495744	-997.5513919436386	723.4879547756111	375.9362306091754	-1021.151480077615	671.374052536328	309.6232561961102	-908.6550151604627	738.4240148603309	225.0744214921102	-918.8219751082953	710.5053057261533	132.5069462017277	-800.816820710324	726.0103678200441	57.70879407282337	-937.6843517920151	680.1521528028961	41.63973573110733	-877.6153876957181	767.9450083280333	107.5743756686486	-712.2141447866965	980.2799562611563	845.3056920511008	-1020.175040748303	892.9757371802574	742.9344161281975	-1177.770669225739	952.737846498909	611.721650835138	-1107.78661299622	933.0318333262533	527.9838763943815	-1132.157734963857	877.1733376268238	429.2943380146863	-1099.52175286792	937.6100142879709	458.4861324705097	-986.8188360670948	878.9027810276802	383.7076590957557	-932.1760245418493	905.6945087222093	386.2754641973938	-793.8887918835954	899.2382233008194	224.9173675338304	-795.9712993904232	938.2374462059961	260.7924494493792	-754.8538060307084	849.3377148446556	445.0950881599992	-740.3300412461699	
3004	156.008	766.079720992664	1481.290388818559	-963.7656396805195	773.160345174605	1259.175545261279	-918.5372984490737	803.7586475839009	1416.296574929758	-1116.852653637293	626.1311748863136	1472.101559776409	-1071.227693140516	932.5734352783343	1470.033836803407	-1030.490520203585	670.4997547049893	974.687005930343	-1071.188341078363	905.4025293689239	972.7455225393808	-1077.773676336759	773.9145361961938	1031.339898172846	-891.9510265221544	806.111488658885	1030.937752578754	-892.4823305156685	618.1851349624096	1049.588959475697	-1028.121111772291	951.4572248521832	1061.672221513448	-987.3656452590545	601.7721368466655	854.8548054064784	-987.3131720986734	678.0678508225967	691.8657446937691	-1106.851377641594	636.6832301637468	617.6260017756058	-992.6607919136017	666.2840218027577	472.9971745707469	-988.6686901499529	722.9185737633069	377.3152070225386	-1011.472809750583	670.844072733641	311.9282690064157	-898.6340277923445	737.7042708674139	227.1105887713327	-908.5094713737852	709.6151001350491	134.8166932193571	-790.0995933611767	725.7328988189523	57.59556937269225	-925.6120718318939	679.9675485737272	41.7911783869279	-865.496388343855	767.1046782707396	111.3181933088776	-701.4624094271641	980.5681265916987	849.5075240289713	-1020.218039441701	892.8792312075068	749.4717179258378	-1179.382392091311	952.5675873811023	616.8899488768941	-1111.779938991381	932.7289749790149	532.9006577998889	-1137.214595515056	877.0938322488979	432.9157451801061	-1107.209439579583	937.5687705200874	458.4104001901799	-993.6641329913932	878.8970581156509	381.8539337163501	-941.416859411135	905.7834672214092	379.7114227403407	-803.0533205772709	898.9689793761235	218.4859950509757	-810.7858576991714	938.0113781786307	252.7465925972694	-768.3430989257906	849.6497754264688	436.7401992542256	-747.3514131648717	
